<svg width="232" height="232" viewBox="0 0 232 232" fill="none" xmlns="http://www.w3.org/2000/svg">
<rect width="232" height="232" rx="10" fill="#F4F4F4" fill-opacity="0.8"/>
<g filter="url(#filter0_d_8_17)">
<path d="M105.559 181.8C86.6253 181.8 73.5586 177.4 66.3586 168.6C61.4253 162.467 58.9586 154.067 58.9586 143.4C58.9586 138.467 59.4919 133.067 60.5586 127.2L67.5586 87.2C73.8253 51.4667 95.6919 33.6 133.159 33.6C148.625 33.6 160.359 36.9333 168.359 43.6C176.359 50.1333 180.359 59.1333 180.359 70.6C180.359 75.2667 179.692 80 178.359 84.8C177.159 89.6 175.959 93.2 174.759 95.6L172.759 99.2H137.359C140.825 94.4 142.559 88.8667 142.559 82.6C142.559 70.6 137.559 64.6 127.559 64.6C114.092 64.6 106.025 72.4 103.359 88L96.5586 126.4C95.8919 130 95.5586 133.533 95.5586 137C95.5586 146.2 100.959 150.8 111.759 150.8C122.692 150.8 129.692 145.333 132.759 134.4H116.359L120.359 112.2H173.359L170.159 129.4L169.159 135.2C163.559 166.267 142.359 181.8 105.559 181.8Z" fill="#194383"/>
</g>
<defs>
<filter id="filter0_d_8_17" x="54.9586" y="33.6" width="129.4" height="156.2" filterUnits="userSpaceOnUse" color-interpolation-filters="sRGB">
<feFlood flood-opacity="0" result="BackgroundImageFix"/>
<feColorMatrix in="SourceAlpha" type="matrix" values="0 0 0 0 0 0 0 0 0 0 0 0 0 0 0 0 0 0 127 0" result="hardAlpha"/>
<feOffset dy="4"/>
<feGaussianBlur stdDeviation="2"/>
<feComposite in2="hardAlpha" operator="out"/>
<feColorMatrix type="matrix" values="0 0 0 0 0 0 0 0 0 0 0 0 0 0 0 0 0 0 0.25 0"/>
<feBlend mode="normal" in2="BackgroundImageFix" result="effect1_dropShadow_8_17"/>
<feBlend mode="normal" in="SourceGraphic" in2="effect1_dropShadow_8_17" result="shape"/>
</filter>
</defs>
</svg>
